<svg viewBox="0 0 78 25" fill="none">
  <path
    d="M11.545 1.76159V10.7483M11.8053 7.32119H13.5126M30.8161 15.851H32.5233M48.0445 15.851H49.7518M30.1102 6.02649V22.9338M47.3387 6.02649V22.9338M25.9516 10.9007L16.4462 10.9007M18.5255 18.6689V11.3576M23.7238 18.6689V11.3576M25.9516 19.4305L16.4462 19.4305M63.082 1.76159V10.7483M77 13.947L68.5772 13.947M36.3481 13.6424H42.1405M63.3423 7.32119H65.0495M72.7359 13.947V10.9007M35.6055 9.83445L41.6947 9.83444C42.515 9.83444 43.1898 10.5198 43.1087 11.3569C42.3773 18.9083 36.2739 20.1159 36.2739 20.1159M3.82191 14.2517H8.72312C9.95351 14.2517 10.9509 15.2746 10.9509 16.5364C10.9509 17.7983 9.95351 18.8212 8.72312 18.8212H6.04973C4.81934 18.8212 3.82191 19.8441 3.82191 21.106C3.82191 22.3678 4.81934 23.3907 6.04973 23.3907H10.9509M54.9133 14.2517H59.8145C61.0449 14.2517 62.0423 15.2746 62.0423 16.5364C62.0423 17.7983 61.0449 18.8212 59.8145 18.8212H57.1411C55.9107 18.8212 54.9133 19.8441 54.9133 21.106C54.9133 22.3678 55.9107 23.3907 57.1411 23.3907H62.0423M69.2769 1H74.1781C75.4085 1 76.4059 2.02293 76.4059 3.28477C76.4059 4.54661 75.4085 5.56954 74.1781 5.56954H71.5047C70.2743 5.56954 69.2769 6.59246 69.2769 7.8543C69.2769 9.11615 70.2743 10.1391 71.5047 10.1391H76.4059M56.547 1.68543V7.09272M56.547 7.09272C56.547 7.09272 56.547 11.2053 52.537 11.2053M56.547 7.09272C56.547 7.09272 56.547 11.2053 60.5571 11.2053M8.42607 7.24503C8.42607 9.3481 6.76369 11.053 4.71304 11.053C2.66238 11.053 1 9.3481 1 7.24503C1 5.14196 2.66238 3.43709 4.71304 3.43709C6.76369 3.43709 8.42607 5.14196 8.42607 7.24503ZM76.5974 20.1921C76.5974 22.2951 74.9351 24 72.8844 24C70.8338 24 69.1714 22.2951 69.1714 20.1921C69.1714 18.089 70.8338 16.3841 72.8844 16.3841C74.9351 16.3841 76.5974 18.089 76.5974 20.1921Z"
    stroke="#6C675F" stroke-width="1.7" stroke-linecap="round" />
</svg>