<svg viewBox="0 0 36 36" fill="none">
  <circle cx="18" cy="18" r="18" fill="#FFFAEB" />
  <path
    d="M19.3422 17.1187C19.2406 17.303 19.1391 17.489 19.0422 17.6733L18.9609 17.8265L18.9531 17.839C19.2391 18.2187 19.4844 18.6265 19.6781 19.0405C19.7062 19.0983 19.7328 19.1577 19.7594 19.2171C20.0359 19.1358 20.3141 19.0905 20.5859 19.0796C20.3813 18.5374 20.0656 17.9749 19.6016 17.4062C19.5203 17.3077 19.4312 17.214 19.3422 17.1187V17.1187Z"
    fill="#FCC21B" />
  <path
    d="M20.1766 21.3063C20.1188 21.3063 20.0594 21.3094 20 21.3156C19.6766 22.3375 18.6266 22.7844 17.5172 22.6469C15.775 22.4328 14.1766 21.1078 13.6406 19.4438C13.5313 19.1109 13.4938 18.7797 13.4813 18.4266C13.45 17.5172 13.625 16.5438 14.536 16.1672L14.5469 16.1625C14.5766 16.15 14.6063 16.1422 14.636 16.1328C14.5703 16.0344 14.5031 15.9313 14.4391 15.8172C14.3485 15.6563 14.2938 15.4859 14.261 15.3203C13.2844 15.6609 12.6891 16.5234 12.2719 17.4734C11.8735 18.3828 9.2844 25.375 9.2844 25.375L8.93752 26.3125C8.81877 26.6375 8.6344 26.9641 8.6344 27.3188C8.6344 27.7328 9.00315 28.0156 9.41877 27.9C9.6969 27.8219 10.0031 27.6781 10.286 27.5656C10.8844 27.3219 11.9938 26.8422 11.9938 26.8422L16.6313 24.9328C16.6313 24.9328 18.8672 24.1234 19.8078 23.2375C20.2641 22.8078 20.6297 22.1891 20.7907 21.45C20.7578 21.4328 20.7235 21.4141 20.6891 21.4C20.5328 21.3359 20.3657 21.3063 20.1766 21.3063V21.3063Z"
    fill="#FCC21B" />
  <path
    d="M16.7 15.4283C16.8203 15.658 16.9531 15.9189 17.0031 16.2424C17.225 16.3361 17.4375 16.4486 17.6391 16.5814C17.7094 16.3564 17.7828 16.1346 17.8594 15.908C17.8266 15.8877 17.7937 15.8643 17.7609 15.8455C17.4312 15.658 17.0609 15.4986 16.675 15.3799C16.6844 15.3971 16.6922 15.4111 16.7 15.4283V15.4283Z"
    fill="#FCC21B" />
  <path
    d="M25.4891 12.9967C25.4641 13.1529 25.4703 13.3748 25.4953 13.5279C25.5219 13.6998 25.5609 13.8826 25.6234 14.0451C25.7125 14.2732 25.8219 14.1935 26.0453 14.1623C26.2 14.142 26.3437 14.1529 26.4969 14.1217C26.6578 14.0889 26.8172 14.0467 26.9781 14.0154C27.3563 13.9435 27.5453 13.8592 27.4656 13.4607C27.4078 13.1732 27.3125 12.8873 27.2375 12.6029C27.1688 12.542 27.0359 12.5764 26.9547 12.5951C26.8109 12.6279 26.6687 12.6357 26.525 12.6607C26.2656 12.7029 25.9937 12.7342 25.7391 12.7951C25.6094 12.8232 25.5094 12.8623 25.4891 12.9967V12.9967Z"
    fill="#D7598B" />
  <path
    d="M23.4485 17.6876C23.5078 17.8235 23.6531 17.7892 23.7953 17.8204C24.111 17.8923 24.4313 17.8845 24.7547 17.8845C24.875 17.8845 25.1797 17.9298 25.2656 17.822C25.3344 17.7345 25.275 17.561 25.2656 17.4595L25.2281 17.0626C25.2219 17.0001 25.2328 16.5907 25.1797 16.5563C25.0891 16.4954 24.9172 16.5251 24.8141 16.5267C24.625 16.5329 24.4391 16.5563 24.2469 16.5563C23.9985 16.5563 23.7297 16.5595 23.4891 16.6188C23.4047 16.8423 23.4281 17.0751 23.4281 17.3204C23.4281 17.4345 23.4031 17.5813 23.4485 17.6876Z"
    fill="#40C0E7" />
  <path
    d="M22.3625 24.4357C22.2328 24.2435 22.1687 23.9857 21.8797 24.0138C21.6078 24.0404 21.3672 24.256 21.1281 24.3732C20.9734 24.4482 20.8609 24.5826 20.8297 24.7513C20.7937 24.9435 20.8734 25.0967 20.9656 25.2607C21.0344 25.3842 21.0797 25.5263 21.1344 25.656C21.1906 25.7904 21.2765 25.9107 21.3344 26.0435C21.3734 26.1373 21.3609 26.1295 21.4469 26.1623C21.4906 26.1779 21.5625 26.1904 21.6094 26.192C21.8828 26.1998 22.1797 25.9232 22.3781 25.7607C22.5375 25.6326 22.8562 25.5513 22.8234 25.3092C22.8 25.1295 22.675 24.956 22.589 24.8013C22.5172 24.6748 22.4406 24.5529 22.3625 24.4357Z"
    fill="#D7598B" />
  <path
    d="M25.4156 25.7483C25.3797 25.7248 25.3453 25.7108 25.3141 25.7061C25.1485 25.6764 25.0391 25.8764 24.9078 26.0061C24.75 26.1577 24.5625 26.278 24.4188 26.4436C24.2641 26.6248 24.3844 26.7873 24.5438 26.8842C24.7172 26.9889 24.8719 27.1202 25.0438 27.2295C25.1969 27.328 25.3203 27.4155 25.4906 27.3092C25.6453 27.2123 25.7313 27.042 25.8375 26.8998C26.0344 26.6342 26.3703 26.4202 26.0406 26.128C25.8563 25.9639 25.6188 25.8827 25.4156 25.7483V25.7483Z"
    fill="#40C0E7" />
  <path
    d="M9.40627 16.6029C9.41408 16.531 9.61721 15.956 9.55627 15.9388C9.41721 15.9045 9.28596 15.8388 9.14533 15.8013C8.98283 15.7592 8.81564 15.7263 8.66408 15.6513C8.48127 15.5607 8.36877 15.606 8.29221 15.7076C8.18439 15.8513 8.15002 16.1092 8.09846 16.267C8.05783 16.3904 8.03283 16.531 8.12033 16.6185C8.22033 16.717 8.38596 16.7732 8.51564 16.8154C8.67814 16.8685 8.85939 16.9623 9.02658 16.9779C9.25471 17.0029 9.38283 16.7967 9.40627 16.6029V16.6029Z"
    fill="#40C0E7" />
  <path
    d="M18.7235 11.0532C18.9266 11.1438 19.1235 11.1953 19.3313 11.2547C19.4047 11.2766 19.4516 11.3125 19.5281 11.2719C19.6266 11.2219 19.736 11.0485 19.7906 10.9532C19.9203 10.7172 20.0156 10.4844 20.1047 10.236C20.1531 10.1032 20.2969 9.88753 20.261 9.7469C20.2297 9.62815 20.0578 9.55472 19.961 9.50315C19.8313 9.43597 19.7078 9.34534 19.5766 9.28753C19.4078 9.21409 19.1766 9.1344 18.9953 9.10784C18.8953 9.09222 18.825 9.13284 18.7703 9.1969C18.7203 9.25472 18.6828 9.33128 18.6453 9.40159C18.4563 9.76409 18.2235 10.3094 18.2313 10.7282C18.2344 10.9266 18.5735 10.986 18.7235 11.0532V11.0532Z"
    fill="#40C0E7" />
  <path
    d="M10.6015 13.2029C10.7156 13.3779 10.8172 13.5373 10.9515 13.7029C11.0828 13.8623 11.1765 13.8935 11.3375 13.7607C11.439 13.6794 11.5547 13.6154 11.6515 13.5279C11.7437 13.4466 11.8203 13.3435 11.9125 13.2591C11.9781 13.1982 12.1078 13.1373 12.1453 13.0529C12.1968 12.9341 12.089 12.831 12.0234 12.7435C11.9422 12.6341 11.8797 12.5154 11.7906 12.406C11.6765 12.2685 11.5531 12.1388 11.425 12.0107C11.3203 11.906 11.1937 11.7451 11.075 11.6638C11.0437 11.6435 11.0078 11.6294 10.9703 11.6248C10.8281 11.6044 10.6593 11.6857 10.5484 11.7513C10.3968 11.8404 10.25 11.9732 10.1172 12.0904C9.90935 12.2748 10.1109 12.5169 10.2328 12.6919C10.3547 12.8607 10.4859 13.0248 10.6015 13.2029Z"
    fill="#D7598B" />
  <path
    d="M10.6141 9.55788C10.7188 9.67038 10.8485 9.80632 10.9953 9.87038C11.125 9.92819 11.2578 9.81257 11.3625 9.74851C11.4797 9.67663 11.575 9.57194 11.6625 9.46726C11.7422 9.37038 11.85 9.26569 11.9094 9.15319C11.9781 9.02507 11.8844 8.97663 11.7891 8.90007C11.675 8.80632 11.5594 8.70944 11.4625 8.59694C11.3313 8.44382 11.2 8.27194 11.061 8.13132C11.0141 8.08288 10.9578 8.07038 10.8985 8.08132C10.7125 8.11257 10.4922 8.37351 10.3828 8.45944C10.2953 8.52663 10.1422 8.64538 10.1156 8.75632C10.0828 8.88132 10.1563 9.00163 10.2188 9.10632C10.3203 9.27507 10.4766 9.41101 10.6141 9.55788V9.55788Z"
    fill="#40C0E7" />
  <path
    d="M15.1656 12.5611C15.3813 13.308 14.8063 13.8846 14.7438 14.5924C14.725 14.7971 14.725 15.0018 14.7594 15.1986C14.7813 15.3268 14.8172 15.4518 14.8813 15.5658C14.9656 15.7158 15.0625 15.8518 15.1516 15.9924C15.2391 16.1283 15.3172 16.2658 15.3703 16.4236C15.4875 16.7736 15.4063 17.0893 15.3563 17.4361C15.3156 17.7127 15.175 17.9736 15.0063 18.1924C14.9547 18.2596 14.8125 18.3455 14.8469 18.4439C14.8516 18.4611 14.8828 18.4674 14.9281 18.4674C15.1156 18.4674 15.5578 18.3533 15.6219 18.3236C15.9031 18.1877 16.0672 17.9127 16.2125 17.6471C16.4281 17.2533 16.5672 16.7939 16.5063 16.3424C16.4938 16.2393 16.4656 16.1424 16.4313 16.0486C16.3266 15.7689 16.1531 15.5189 16.0547 15.233C16.0422 15.1986 16.0297 15.1643 16.0203 15.1283C15.8766 14.5689 16.2219 14.0205 16.5125 13.5752C16.7985 13.1393 16.9063 12.4986 16.7031 11.9986C16.6 11.7455 16.4344 11.4924 16.2328 11.3064C15.9938 11.0846 15.6297 10.883 15.6703 10.5002C15.7047 10.1674 15.9297 9.81738 16.1 9.54238C16.1844 9.40332 16.45 9.11895 16.4406 8.95957C16.4328 8.79707 16.2063 8.71582 16.0985 8.62051C15.8547 8.40488 15.661 8.23926 15.3485 8.14082C15.3013 8.12399 15.2517 8.11502 15.2016 8.11426C15 8.11426 14.9297 8.29707 14.8172 8.49395C14.611 8.85801 14.4078 9.24238 14.2703 9.63613C14.011 10.3674 13.9719 11.1221 14.5328 11.8064C14.7266 12.0455 15.0844 12.2799 15.1656 12.5611V12.5611Z"
    fill="#ED6C30" />
  <path
    d="M17.7 18.8656C17.7391 18.9062 17.775 18.9234 17.8078 18.9234C17.8687 18.9234 17.9172 18.8609 17.9562 18.7875C17.9859 18.7312 18.0094 18.6734 18.0281 18.6125C18.1328 18.2609 18.3406 17.9125 18.5125 17.5875C18.5437 17.5297 18.575 17.4734 18.6047 17.4172C18.7234 17.1937 18.8453 16.9703 18.9719 16.7484C19.0703 16.5734 19.1688 16.3969 19.275 16.2281C19.5531 15.7828 19.9281 15.3078 20.4 15.0594C20.6969 14.9 21.0313 14.8266 21.3297 14.6687C21.6688 14.4922 21.8672 14.225 22.0875 13.9203C22.3063 13.6187 22.4203 13.2469 22.6203 12.9297C22.7047 12.7953 22.6922 12.6766 22.8406 12.5828C23.1703 12.3766 23.5656 12.4469 23.9313 12.3766C24.7953 12.2109 24.8719 11.0719 25.5781 10.6609C25.7266 10.575 25.8781 10.4953 26.0281 10.4156C26.1156 10.3687 26.2844 10.3109 26.3453 10.225C26.45 10.0781 26.2516 9.88594 26.1922 9.75156C26.0891 9.52031 25.9344 9.2875 25.8016 9.07187C25.6891 8.89062 25.5891 8.72656 25.3891 8.72656L25.35 8.72969C24.8984 8.77344 24.4953 8.97188 24.2063 9.31719C23.8547 9.73906 23.8078 10.3906 23.2547 10.6219C22.8953 10.7719 22.4719 10.7125 22.1313 10.9203C21.7281 11.1672 21.5984 11.6547 21.4859 12.0828C21.4016 12.3953 21.3969 12.7719 21.1594 13.0172C20.8375 13.3469 20.3484 13.3875 19.9359 13.5641C19.825 13.6125 19.7188 13.6703 19.6234 13.7453C19.1 14.1578 18.8031 14.8344 18.5687 15.4406C18.4734 15.6891 18.3875 15.9422 18.3031 16.1953C18.225 16.4312 18.1484 16.6672 18.075 16.9047C18.0375 17.0266 17.9969 17.1484 17.9594 17.2719C17.8641 17.5812 17.7766 17.8984 17.6641 18.2031C17.5859 18.3984 17.5375 18.6969 17.7 18.8656V18.8656Z"
    fill="#ED6C30" />
  <path
    d="M27.9125 21.5625C27.8828 21.5313 27.8406 21.5281 27.7984 21.5281L27.75 21.5297L27.7234 21.5281C27.6297 21.5219 27.5516 21.4813 27.4609 21.45C27.0438 21.3047 26.7734 21.1844 26.4047 20.9359C25.9891 20.6563 25.5125 20.3953 25 20.3719L24.9406 20.3703C24.4344 20.3703 23.9672 20.6375 23.4594 20.6375H23.4563C22.8938 20.6344 22.4078 20.2344 21.9641 19.9391C21.9266 19.9141 21.8891 19.8906 21.8484 19.8688C21.5 19.6719 21.125 19.5859 20.7469 19.5813C20.7375 19.5813 20.7266 19.5781 20.7172 19.5781C20.4563 19.5781 20.1938 19.6188 19.9375 19.6906C19.6875 19.7594 19.4453 19.8594 19.2141 19.9828C18.8829 20.1591 18.5695 20.3669 18.2781 20.6031C18.1172 20.7328 17.9406 20.8812 17.8313 21.0609C17.7719 21.1562 17.6906 21.5188 17.8422 21.5781L17.8625 21.5828C17.9219 21.5828 18.0188 21.5203 18.0609 21.4938C18.3984 21.2859 18.7547 21.1047 19.1344 20.9859C19.4453 20.8875 19.7719 20.8156 20.0953 20.8031C20.1219 20.8016 20.15 20.8 20.1766 20.8C20.4094 20.8 20.6406 20.8359 20.8656 20.9234L20.875 20.9281C21.1891 21.0531 21.4516 21.2687 21.7109 21.4797C22.0922 21.7891 22.5156 21.8578 22.9469 21.8578C23.2828 21.8578 23.6234 21.8172 23.9563 21.8172C24.3047 21.8172 24.6422 21.8625 24.9531 22.0453C25.2063 22.1969 25.4344 22.3953 25.6297 22.6063C25.8453 22.8359 26.1203 23.0281 26.4438 23.0781C26.5813 23.1 26.7063 23.1109 26.8453 23.1125H26.8484C27.0828 23.1125 27.1719 22.8422 27.2906 22.6875C27.4531 22.4781 27.5656 22.2375 27.7141 22.0172C27.7766 21.9203 28.0188 21.6688 27.9125 21.5625V21.5625Z"
    fill="#ED6C30" />
</svg>