<svg width="47" height="47" viewBox="0 0 47 47" fill="none">
  <path
    d="M5.875 11.75C5.875 10.1919 6.49397 8.69752 7.59575 7.59575C8.69752 6.49397 10.1919 5.875 11.75 5.875H29.375C30.9331 5.875 32.4275 6.49397 33.5293 7.59575C34.631 8.69752 35.25 10.1919 35.25 11.75V29.375C35.25 30.9331 34.631 32.4275 33.5293 33.5293C32.4275 34.631 30.9331 35.25 29.375 35.25H11.75C10.1919 35.25 8.69752 34.631 7.59575 33.5293C6.49397 32.4275 5.875 30.9331 5.875 29.375V11.75ZM19.0938 19.0938H13.2188C12.8292 19.0938 12.4556 19.2485 12.1802 19.5239C11.9047 19.7994 11.75 20.173 11.75 20.5625C11.75 20.952 11.9047 21.3256 12.1802 21.6011C12.4556 21.8765 12.8292 22.0312 13.2188 22.0312H19.0938V27.9062C19.0938 28.2958 19.2485 28.6694 19.5239 28.9448C19.7994 29.2203 20.173 29.375 20.5625 29.375C20.952 29.375 21.3256 29.2203 21.6011 28.9448C21.8765 28.6694 22.0312 28.2958 22.0312 27.9062V22.0312H27.9062C28.2958 22.0312 28.6694 21.8765 28.9448 21.6011C29.2203 21.3256 29.375 20.952 29.375 20.5625C29.375 20.173 29.2203 19.7994 28.9448 19.5239C28.6694 19.2485 28.2958 19.0938 27.9062 19.0938H22.0312V13.2188C22.0312 12.8292 21.8765 12.4556 21.6011 12.1802C21.3256 11.9047 20.952 11.75 20.5625 11.75C20.173 11.75 19.7994 11.9047 19.5239 12.1802C19.2485 12.4556 19.0938 12.8292 19.0938 13.2188V19.0938ZM30.8438 38.1875C32.7914 38.1875 34.6593 37.4138 36.0366 36.0366C37.4138 34.6593 38.1875 32.7914 38.1875 30.8438V9.59975C39.0806 10.1154 39.8222 10.857 40.3379 11.7501C40.8535 12.6432 41.125 13.6562 41.125 14.6875V30.8438C41.125 33.5705 40.0418 36.1856 38.1137 38.1137C36.1856 40.0418 33.5705 41.125 30.8438 41.125H14.6875C13.6562 41.125 12.6432 40.8535 11.7501 40.3379C10.857 39.8222 10.1154 39.0806 9.59975 38.1875H30.8438Z"
    fill="#B5B5B5" />
</svg>