<svg width="15" height="15" viewBox="0 0 15 15" fill="none">
  <path
    d="M10.0316 0.569205C9.93561 0.472975 9.82158 0.396626 9.69604 0.344533C9.5705 0.292439 9.43592 0.265625 9.3 0.265625C9.16408 0.265625 9.0295 0.292439 8.90396 0.344533C8.77842 0.396626 8.66439 0.472975 8.5684 0.569205L0 9.13967V13.7008C0 13.9749 0.108869 14.2377 0.302657 14.4315C0.496444 14.6253 0.759276 14.7341 1.03333 14.7341H5.59447L14.1649 6.16574C14.2612 6.06975 14.3375 5.95572 14.3896 5.83018C14.4417 5.70464 14.4685 5.57006 14.4685 5.43414C14.4685 5.29822 14.4417 5.16364 14.3896 5.0381C14.3375 4.91256 14.2612 4.79853 14.1649 4.70254L10.0316 0.569205Z"
    fill="#B5B5B5" />
</svg>